HIERARCHY
ROOT Hips
{
	OFFSET 0.000000 0.000000 0.000000
	CHANNELS 6 Xposition Yposition Zposition Xrotation Yrotation Zrotation
	JOINT LeftUpLeg_virtual
	{
		OFFSET 0.000000 0.000000 0.000000
		CHANNELS 3 Xrotation Yrotation Zrotation
		JOINT LeftUpLeg
		{
			OFFSET 10.205400 -3.823500 0.155100
			CHANNELS 3 Xrotation Yrotation Zrotation
			JOINT LeftLeg
			{
				OFFSET 0.708757 -12.982077 0.567790
				CHANNELS 3 Xrotation Yrotation Zrotation
				JOINT LeftFoot
				{
					OFFSET -0.708756 -10.717838 -2.184338
					CHANNELS 3 Xrotation Yrotation Zrotation
					JOINT LeftToeBase
					{
						OFFSET 0.108149 -7.191104 7.560241
						CHANNELS 3 Xrotation Yrotation Zrotation
						JOINT LeftToe_End
						{
							OFFSET 0.070230 0.081724 4.490308
							CHANNELS 3 Xrotation Yrotation Zrotation
							End Site
							{
								OFFSET 0 0 0
							}
						}
					}
				}
			}
		}
	}
	JOINT RightUpLeg_virtual
	{
		OFFSET 0.000000 0.000000 0.000000
		CHANNELS 3 Xrotation Yrotation Zrotation
		JOINT RightUpLeg
		{
			OFFSET -10.205400 -3.823500 0.005500
			CHANNELS 3 Xrotation Yrotation Zrotation
			JOINT RightLeg
			{
				OFFSET -0.708756 -12.982134 0.610632
				CHANNELS 3 Xrotation Yrotation Zrotation
				JOINT RightFoot
				{
					OFFSET 0.708754 -10.717769 -1.945823
					CHANNELS 3 Xrotation Yrotation Zrotation
					JOINT RightToeBase
					{
						OFFSET -0.108140 -7.191069 7.372968
						CHANNELS 3 Xrotation Yrotation Zrotation
						JOINT RightToe_End
						{
							OFFSET -0.070227 0.081735 4.479403
							CHANNELS 3 Xrotation Yrotation Zrotation
							End Site
							{
								OFFSET 0 0 0
							}
						}
					}
				}
			}
		}
	}
	JOINT Spine_virtual
	{
		OFFSET 0.000000 0.000000 0.000000
		CHANNELS 3 Xrotation Yrotation Zrotation
		JOINT Spine
		{
			OFFSET 0.000000 6.876099 0.125700
			CHANNELS 3 Xrotation Yrotation Zrotation
			JOINT Spine1
			{
				OFFSET 0.000000 5.730043 0.104720
				CHANNELS 3 Xrotation Yrotation Zrotation
				JOINT Spine1_split
				{
					OFFSET 0.000000 5.730043 0.104720
					CHANNELS 3 Xrotation Yrotation Zrotation
					JOINT Spine2
					{
						OFFSET 0.000000 5.730043 0.104720
						CHANNELS 3 Xrotation Yrotation Zrotation
						JOINT Neck_virtual
						{
							OFFSET 0.000000 0.000000 0.000000
							CHANNELS 3 Xrotation Yrotation Zrotation
							JOINT Neck
							{
								OFFSET 0.000000 10.314075 0.188496
								CHANNELS 3 Xrotation Yrotation Zrotation
								JOINT Head
								{
									OFFSET 0.000000 7.643700 -2.377400
									CHANNELS 3 Xrotation Yrotation Zrotation
									JOINT HeadTop_End
									{
										OFFSET 0.000000 43.788605 -13.619600
										CHANNELS 3 Xrotation Yrotation Zrotation
										End Site
										{
											OFFSET 0 0 0
										}
									}
								}
							}
						}
						JOINT LeftShoulder_virtual
						{
							OFFSET 0.000000 0.000000 0.000000
							CHANNELS 3 Xrotation Yrotation Zrotation
							JOINT LeftShoulder
							{
								OFFSET 2.196100 4.412489 0.087492
								CHANNELS 3 Xrotation Yrotation Zrotation
								JOINT LeftShoulder_split
								{
									OFFSET 2.196100 4.412489 0.087492
									CHANNELS 3 Xrotation Yrotation Zrotation
									JOINT LeftArm
									{
										OFFSET 8.771219 -2.981674 -0.026999
										CHANNELS 3 Xrotation Yrotation Zrotation
										JOINT LeftForeArm
										{
											OFFSET 8.512804 0.000000 -0.000000
											CHANNELS 3 Xrotation Yrotation Zrotation
											JOINT LeftHand
											{
												OFFSET 18.484802 0.000000 -0.000000
												CHANNELS 3 Xrotation Yrotation Zrotation
												End Site
												{
													OFFSET 0 0 0
												}
											}
										}
									}
								}
							}
						}
						JOINT RightShoulder_virtual
						{
							OFFSET 0.000000 0.000000 0.000000
							CHANNELS 3 Xrotation Yrotation Zrotation
							JOINT RightShoulder
							{
								OFFSET -2.196100 4.412496 0.070690
								CHANNELS 3 Xrotation Yrotation Zrotation
								JOINT RightShoulder_split
								{
									OFFSET -2.196100 4.412496 0.070690
									CHANNELS 3 Xrotation Yrotation Zrotation
									JOINT RightArm
									{
										OFFSET -8.771282 -2.981682 -0.094208
										CHANNELS 3 Xrotation Yrotation Zrotation
										JOINT RightForeArm
										{
											OFFSET -8.494598 0.000000 0.000000
											CHANNELS 3 Xrotation Yrotation Zrotation
											JOINT RightHand
											{
												OFFSET -18.483803 0.000000 0.000001
												CHANNELS 3 Xrotation Yrotation Zrotation
												End Site
												{
													OFFSET 0 0 0
												}
											}
										}
									}
								}
							}
						}
					}
				}
			}
		}
	}
}
MOTION
Frames: 7
Frame Time: 0.03333333
-9.215023 47.718994 13.134817 0.000000 0.000000 0.000000 6.258684 -17.601942 1.272039 -15.821510 6.984386 5.391972 28.798369 12.372483 6.347214 17.615244 -1.097676 1.891800 3.423983 0.895897 0.174636 0.000000 0.000000 0.000000 6.228789 -17.110720 0.668684 1.509613 -6.004133 -4.221504 10.318875 -16.430556 0.495644 29.810729 -3.105429 -3.086228 12.919595 -6.288312 -0.174590 0.000000 0.000000 0.000000 5.779186 -15.322983 0.613779 0.235369 3.737149 3.910674 -5.097140 1.185528 -1.683924 2.209261 -2.620056 0.386926 0.000000 0.000000 0.000000 -0.769911 1.222946 -2.401365 -28.189786 1.993217 -0.292071 -6.604970 3.213414 4.250333 0.000000 0.000000 0.000000 -3.799879 1.244023 -1.847923 4.389961 -3.313264 22.222919 4.641639 6.471904 0.952458 -56.546726 -25.152771 23.101568 -23.829552 -47.148721 9.707970 0.000000 0.000000 0.000000 -3.541594 0.756758 -1.469352 -4.746390 -11.983113 -26.266679 -1.192250 -1.909745 -2.196336 -84.811839 34.466637 33.560712 -31.402286 43.616782 -4.306528 0.000000 0.000000 0.000000 
-9.498956 46.612617 13.595997 0.000000 0.000000 0.000000 5.122468 -16.239215 0.619314 -18.375784 8.514943 6.784660 31.058182 12.778121 5.184857 25.036484 -1.765648 3.516701 4.736661 0.982743 -0.102024 0.000000 0.000000 0.000000 5.563446 -14.236830 0.048281 -0.330146 -8.091326 -6.788949 15.594968 -14.059219 2.159180 36.291951 0.002958 -0.423270 11.860264 -3.847717 -1.034398 0.000000 0.000000 0.000000 4.126703 -13.278372 -0.161154 0.654173 3.924357 4.076675 -5.399721 1.089174 -1.305921 2.580405 -2.891434 0.733870 0.000000 0.000000 0.000000 -1.567197 1.159680 -1.878131 -27.687002 1.218888 -1.115340 -7.229483 1.628223 4.418156 0.000000 0.000000 0.000000 -4.391570 1.100208 -1.428051 5.267909 -2.418400 24.456351 3.759066 4.934830 1.974329 -52.382681 -19.407129 19.126107 -20.349483 -51.259245 11.936319 0.000000 0.000000 0.000000 -4.230575 0.719266 -0.997875 -2.560527 -10.085021 -24.062133 -1.985697 -2.598121 -2.075730 -79.781800 39.094937 31.326734 -30.559322 39.391105 -0.361626 0.000000 0.000000 0.000000 
-9.742093 45.455956 14.105469 0.000000 0.000000 0.000000 4.017785 -15.013727 0.033113 -20.905180 9.480875 8.006215 33.120673 13.145391 4.267185 31.285582 -2.111751 5.887110 5.872337 1.033746 -0.354658 0.000000 0.000000 0.000000 4.962186 -11.280785 -0.389141 -1.177422 -8.639844 -8.036899 19.047297 -11.930190 2.895174 41.337859 2.296366 2.084319 10.354286 -1.675299 -1.301564 0.000000 0.000000 0.000000 2.374770 -11.637292 -0.652195 0.937206 3.964813 4.106141 -5.764543 0.955867 -0.850419 2.435756 -2.922296 0.714986 0.000000 0.000000 0.000000 -2.629387 1.087208 -1.287681 -26.900253 0.960214 -2.175999 -7.210169 0.180948 4.452098 0.000000 0.000000 0.000000 -4.999448 0.948931 -0.938709 5.649349 -0.422934 27.289761 2.700734 3.086505 2.653816 -49.653221 -16.658507 14.155940 -19.360325 -51.281579 12.308941 0.000000 0.000000 0.000000 -5.199218 0.670202 -0.448474 -0.651410 -7.494703 -23.833824 -2.195200 -2.918976 -1.630681 -75.382865 41.082574 28.110045 -29.390926 33.933561 2.283533 0.000000 0.000000 0.000000 
-9.966206 44.513943 14.751620 0.000000 0.000000 0.000000 3.089345 -13.942141 -0.407059 -22.302277 9.644698 8.446275 34.594765 13.894749 3.913733 34.575029 -1.606136 8.818491 7.400257 1.096098 -0.865189 0.000000 0.000000 0.000000 4.417351 -8.726686 -0.608438 -0.749487 -7.980261 -7.684829 20.074583 -11.149050 2.926219 43.843476 2.293468 2.886050 10.527078 -0.137308 -0.585749 0.000000 0.000000 0.000000 0.940304 -10.493762 -0.823526 0.922205 3.904509 4.030335 -6.222655 0.826831 -0.415315 1.803557 -2.533458 0.403065 0.000000 0.000000 0.000000 -3.817312 1.021980 -0.754396 -25.728805 0.887446 -3.332585 -6.572744 -0.939982 4.357394 0.000000 0.000000 0.000000 -5.638079 0.834531 -0.499615 5.627694 1.943147 30.364528 1.884171 1.462704 2.985402 -48.997445 -16.926004 9.477929 -21.186516 -47.606743 10.567640 0.000000 0.000000 0.000000 -6.307121 0.654666 0.071304 0.868699 -4.864115 -25.564792 -2.002664 -2.570334 -0.926387 -73.469763 40.717203 25.611780 -28.035739 28.531304 3.667378 0.000000 0.000000 0.000000 
-10.121601 43.924713 15.505056 0.000000 0.000000 0.000000 2.428108 -12.978585 -0.698424 -22.075066 9.113194 8.155030 35.194254 14.842047 4.133449 35.250852 -0.693393 11.024884 8.732233 1.171720 -1.607690 0.000000 0.000000 0.000000 3.766802 -6.916936 -0.644695 0.551354 -6.569279 -6.184164 19.282550 -11.584320 2.402392 44.317942 0.264073 2.503026 10.899975 0.623267 0.509584 0.000000 0.000000 0.000000 0.055323 -9.733919 -0.689551 0.539575 3.749429 3.870448 -6.773633 0.720315 -0.110390 1.232924 -1.993274 0.005611 0.000000 0.000000 0.000000 -4.993979 0.941587 -0.377599 -24.189135 0.724230 -4.407630 -5.403473 -1.647989 4.164246 0.000000 0.000000 0.000000 -6.290066 0.800913 -0.258233 5.411049 4.032437 33.177282 1.573657 0.202315 2.792843 -50.471577 -19.778985 5.498374 -24.200305 -41.750464 8.010522 0.000000 0.000000 0.000000 -7.273784 0.694976 0.440077 1.991248 -2.823741 -28.774409 -1.763791 -1.701949 0.183756 -74.159038 38.962442 24.452229 -26.686650 24.455554 4.108526 0.000000 0.000000 0.000000 
-10.261440 43.675034 16.373960 0.000000 0.000000 0.000000 1.798858 -11.859056 -0.740575 -20.719153 8.310905 7.394645 34.896659 15.695416 4.674259 34.415732 -0.035800 11.881338 8.852743 1.282692 -2.160500 0.000000 0.000000 0.000000 2.925049 -5.827150 -0.511961 1.708241 -5.155280 -4.521163 18.458595 -12.514539 1.962689 44.947443 -2.180387 2.335623 9.204908 0.696858 1.313696 0.000000 0.000000 0.000000 -0.258383 -9.064169 -0.304652 -0.080026 3.535400 3.669505 -7.382290 0.625576 0.031597 0.603798 -1.393753 -0.189673 0.000000 0.000000 0.000000 -6.061404 0.851217 -0.216959 -22.314226 0.415092 -5.239540 -3.834418 -1.949253 3.911216 0.000000 0.000000 0.000000 -6.938588 0.843090 -0.252390 5.233303 5.466436 35.280079 1.828334 -0.372520 2.097075 -53.174836 -23.749695 2.374983 -26.925518 -35.680877 5.765423 0.000000 0.000000 0.000000 -8.010910 0.800130 0.593487 2.673167 -1.658444 -32.624399 -1.404927 -0.369507 1.344294 -76.215328 36.642855 24.301663 -25.535342 22.631108 3.986912 0.000000 0.000000 0.000000 
-10.427831 43.683968 17.253862 0.000000 0.000000 0.000000 1.147247 -10.732823 -0.542499 -18.899705 8.016619 6.616687 34.079454 16.298614 5.177586 33.201188 0.209301 11.571902 7.945515 1.390438 -2.307694 0.000000 0.000000 0.000000 1.905471 -5.058296 -0.199085 2.367344 -4.317214 -3.526230 17.857226 -12.720720 1.845078 46.461730 -2.955397 3.656849 5.739125 0.368716 1.351311 0.000000 0.000000 0.000000 -0.255951 -8.343189 0.226572 -0.767503 3.274022 3.497578 -7.996338 0.535986 0.001548 0.437317 -0.760705 -0.114073 0.000000 0.000000 0.000000 -6.954739 0.762591 -0.261057 -20.391436 -0.021562 -5.798514 -2.150647 -1.804905 3.572434 0.000000 0.000000 0.000000 -7.579079 0.935291 -0.468584 5.300500 6.098080 36.427164 3.006272 -0.275758 1.164269 -56.018063 -27.581936 -0.014990 -28.718067 -31.110327 4.129193 0.000000 0.000000 0.000000 -8.460634 0.958055 0.531108 3.016894 -1.275828 -36.191386 -1.008594 1.053966 2.385388 -78.040778 34.373863 24.647911 -24.541128 23.039690 3.589816 0.000000 0.000000 0.000000 
